HIERARCHY
ROOT hip
{
  OFFSET 0 0 0
  CHANNELS 6 Xposition Yposition Zposition Zrotation Yrotation Xrotation
  JOINT abdomen
  {
    OFFSET 0 20.6881 -0.73152
    CHANNELS 3 Zrotation Xrotation Yrotation
    JOINT chest
    {
      OFFSET 0 11.7043 -0.48768
      CHANNELS 3 Zrotation Xrotation Yrotation
      JOINT neck
      {
        OFFSET 0 22.1894 -2.19456
        CHANNELS 3 Zrotation Xrotation Yrotation
        JOINT head
        {
          OFFSET -0.24384 7.07133 1.2192
          CHANNELS 3 Zrotation Xrotation Yrotation
          JOINT leftEye
          {
            OFFSET 4.14528 8.04674 8.04672
            CHANNELS 3 Zrotation Xrotation Yrotation
            End Site
            {
              OFFSET 1 0 0
            }
          }
          JOINT rightEye
          {
            OFFSET -3.6576 8.04674 8.04672
            CHANNELS 3 Zrotation Xrotation Yrotation
            End Site
            {
              OFFSET 1 0 0
            }
          }
        }
      }
      JOINT rCollar
      {
        OFFSET -2.68224 19.2634 -4.8768
        CHANNELS 3 Zrotation Xrotation Yrotation
        JOINT rShldr
        {
          OFFSET -8.77824 -1.95073 1.46304
          CHANNELS 3 Zrotation Xrotation Yrotation
          JOINT rForeArm
          {
            OFFSET -28.1742 -1.7115 0.48768
            CHANNELS 3 Zrotation Xrotation Yrotation
            JOINT rHand
            {
              OFFSET -22.5879 0.773209 7.07136
              CHANNELS 3 Zrotation Xrotation Yrotation
              JOINT rThumb1
              {
                OFFSET -1.2192 -0.487915 3.41376
                CHANNELS 3 Zrotation Xrotation Yrotation
                JOINT rThumb2
                {
                  OFFSET -3.37035 -0.52449 3.41376
                  CHANNELS 3 Zrotation Xrotation Yrotation
                  End Site
                  {
                    OFFSET -1.78271 -1.18214 1.43049
                  }
                }
              }
              JOINT rIndex1
              {
                OFFSET -7.75947 0.938293 5.60832
                CHANNELS 3 Zrotation Xrotation Yrotation
                JOINT rIndex2
                {
                  OFFSET -2.54057 -0.884171 1.56538
                  CHANNELS 3 Zrotation Xrotation Yrotation
                  End Site
                  {
                    OFFSET -1.62519 -0.234802 1.16502
                  }
                }
              }
              JOINT rMid1
              {
                OFFSET -8.24714 1.18213 3.41376
                CHANNELS 3 Zrotation Xrotation Yrotation
                JOINT rMid2
                {
                  OFFSET -3.10165 -0.590103 1.0647
                  CHANNELS 3 Zrotation Xrotation Yrotation
                  End Site
                  {
                    OFFSET -2.48547 -0.328903 0.83742
                  }
                }
              }
              JOINT rRing1
              {
                OFFSET -8.82822 0.546677 1.51678
                CHANNELS 3 Zrotation Xrotation Yrotation
                JOINT rRing2
                {
                  OFFSET -2.60934 -0.819778 -0.0198488
                  CHANNELS 3 Zrotation Xrotation Yrotation
                  End Site
                  {
                    OFFSET -2.33842 -0.294052 0.168128
                  }
                }
              }
              JOINT rPinky1
              {
                OFFSET -8.27202 -0.0477905 -0.4584
                CHANNELS 3 Zrotation Xrotation Yrotation
                JOINT rPinky2
                {
                  OFFSET -1.82734 -0.647385 -0.700984
                  CHANNELS 3 Zrotation Xrotation Yrotation
                  End Site
                  {
                    OFFSET -1.69225 -0.51767 -0.607171
                  }
                }
              }
            }
          }
        }
      }
      JOINT lCollar
      {
        OFFSET 2.68224 19.2634 -4.8768
        CHANNELS 3 Zrotation Xrotation Yrotation
        JOINT lShldr
        {
          OFFSET 8.77824 -1.95073 1.46304
          CHANNELS 3 Zrotation Xrotation Yrotation
          JOINT lForeArm
          {
            OFFSET 28.1742 -1.7115 0.48768
            CHANNELS 3 Zrotation Xrotation Yrotation
            JOINT lHand
            {
              OFFSET 22.5879 0.773209 7.07136
              CHANNELS 3 Zrotation Xrotation Yrotation
              JOINT lThumb1
              {
                OFFSET 1.2192 -0.487915 3.41376
                CHANNELS 3 Zrotation Xrotation Yrotation
                JOINT lThumb2
                {
                  OFFSET 3.37035 -0.52449 3.41376
                  CHANNELS 3 Zrotation Xrotation Yrotation
                  End Site
                  {
                    OFFSET 1.78271 -1.18214 1.43049
                  }
                }
              }
              JOINT lIndex1
              {
                OFFSET 7.75947 0.938293 5.60832
                CHANNELS 3 Zrotation Xrotation Yrotation
                JOINT lIndex2
                {
                  OFFSET 2.54057 -0.884171 1.56538
                  CHANNELS 3 Zrotation Xrotation Yrotation
                  End Site
                  {
                    OFFSET 1.62519 -0.234802 1.16502
                  }
                }
              }
              JOINT lMid1
              {
                OFFSET 8.24714 1.18213 3.41376
                CHANNELS 3 Zrotation Xrotation Yrotation
                JOINT lMid2
                {
                  OFFSET 3.10165 -0.590103 1.0647
                  CHANNELS 3 Zrotation Xrotation Yrotation
                  End Site
                  {
                    OFFSET 2.48547 -0.328903 0.83742
                  }
                }
              }
              JOINT lRing1
              {
                OFFSET 8.82822 0.546677 1.51678
                CHANNELS 3 Zrotation Xrotation Yrotation
                JOINT lRing2
                {
                  OFFSET 2.60934 -0.819778 -0.0198488
                  CHANNELS 3 Zrotation Xrotation Yrotation
                  End Site
                  {
                    OFFSET 2.33842 -0.294052 0.168128
                  }
                }
              }
              JOINT lPinky1
              {
                OFFSET 8.27202 -0.0477905 -0.4584
                CHANNELS 3 Zrotation Xrotation Yrotation
                JOINT lPinky2
                {
                  OFFSET 1.82734 -0.647385 -0.700984
                  CHANNELS 3 Zrotation Xrotation Yrotation
                  End Site
                  {
                    OFFSET 1.69225 -0.51767 -0.607171
                  }
                }
              }
            }
          }
        }
      }
    }
  }
  JOINT rButtock
  {
    OFFSET -8.77824 4.35084 1.2192
    CHANNELS 3 Zrotation Xrotation Yrotation
    JOINT rThigh
    {
      OFFSET 0 -1.70687 -2.19456
      CHANNELS 3 Zrotation Xrotation Yrotation
      JOINT rShin
      {
        OFFSET 0 -36.8199 0.73152
        CHANNELS 3 Zrotation Xrotation Yrotation
        JOINT rFoot
        {
          OFFSET 0.73152 -45.1104 -5.12064
          CHANNELS 3 Zrotation Xrotation Yrotation
          End Site
          {
            OFFSET -1.1221 -3.69964 12.103
          }
        }
      }
    }
  }
  JOINT lButtock
  {
    OFFSET 8.77824 4.35084 1.2192
    CHANNELS 3 Zrotation Xrotation Yrotation
    JOINT lThigh
    {
      OFFSET 0 -1.70687 -2.19456
      CHANNELS 3 Zrotation Xrotation Yrotation
      JOINT lShin
      {
        OFFSET 0 -36.8199 0.73152
        CHANNELS 3 Zrotation Xrotation Yrotation
        JOINT lFoot
        {
          OFFSET -0.73152 -45.1104 -5.12064
          CHANNELS 3 Zrotation Xrotation Yrotation
          End Site
          {
            OFFSET 1.1221 -3.69964 12.103
          }
        }
      }
    }
  }
}
MOTION
Frames:	4
Frame Time:	0.03333
11.1495 71.29339999999999 11.0393 -176.400724 -30.239694 -176.066453 -6.549689 2.393014 70.015471 -2.57104 -8.27532 -72.455492 -2.261946 16.390871 25.06885 -2.268968 -12.265961 -59.365212 2.174774 0.172753 9.082394 -8.306938 0.982897 -13.472894 -2.542511 -0.322484 3.173112 -99.2173 -6.602052 -171.803545 7.53554 5.663161 -73.953189 169.409096 -18.56837 142.422395 -174.195526 -6.901309 86.764412 -35.070501 -26.977463 14.326322 -162.218005 -12.274869 113.114891 -84.357154 54.722529 36.984874 -88.594003 57.104314 74.822504 2.928193 14.520576 17.2204 -147.94829 -11.494146 -173.397758 -151.920775 -29.87919 -166.691205 22.688761 41.233519 2.495408 -144.322926 45.309137 -177.390783 73.70676 -82.73541 95.183354 77.758222 -24.897866 91.581463 179.231996 -6.07984 150.818494 12.826274 48.49147 -7.435198 7.378372 7.316914 -3.670002 -13.626814 -9.065319 6.562158 149.461242 -18.589251 -117.87716 156.955739 4.809013 -110.077653 46.490839 51.342821 -33.384535 -43.881431 -36.13508 -9.447695 142.908443 -1.018599 177.69483 155.983968 1.643231 176.344037 6.349953 86.274292 -49.54625 -12.931495 16.712311 14.113824 -0.753789 -4.187173 0.911636 -10.145019 -20.440704 54.694518 39.435456 17.308983 28.641198 -92.450825 84.214209 8.40391 -1.113474 1.493829 1.460492 9.705037 -18.798096 64.347629 44.62757 16.081067 61.843693 95.363919 83.57605 162.878182
11.186599999999999 71.3232 10.9463 -176.466631 -29.779007 -175.972189 -4.256156 4.054893 -0.0 4.620446 -6.834556 -2.032304 -9.284701 17.034288 -11.178268 12.839589 -9.905972 -20.237034 1.401225 0.116992 9.544946 -6.993926 0.743367 -12.119301 -155.182377 8.607304 155.638599 -50.238074 -15.324218 28.777225 11.775299 19.234605 -76.158329 171.021958 -14.036649 143.051541 -170.482671 -3.250338 86.605721 99.570075 -55.159548 70.287824 20.688756 -44.980435 5.152775 -139.987024 -66.582254 144.309328 75.190125 -76.896692 52.489578 -4.072922 2.846711 -14.364738 -116.860721 70.044258 133.862742 -164.099631 -63.932083 -176.74439 -25.022038 -35.017203 -32.020639 -127.030385 62.079784 -164.765411 24.181623 60.5072 -25.158767 -88.949045 -9.499594 -64.121877 -171.046976 -8.842311 -111.668834 -160.926556 -28.542475 -144.507795 77.654591 37.118316 -43.152384 -7.552875 -12.971734 -27.429251 -175.979553 -59.495899 -109.732295 15.437978 31.686069 -0.576829 94.385301 59.683241 -78.749865 -13.889783 3.276019 -17.760082 -2.298327 5.300941 0.116077 -10.024921 0.4727 -3.980011 147.902449 43.377802 151.836423 148.630416 39.805673 135.79498 18.299128 -1.05624 17.15174 -33.430772 -14.70969 -10.232654 -2.847146 47.8397 -132.431163 57.798779 -32.904802 153.537482 -8.600637 1.812186 -4.346087 19.31757 -18.114595 118.792507 44.443465 -7.91183 139.352762 111.188158 -28.59152 -176.889754
11.273800000000001 71.5294 10.8285 -176.45098 -30.919571 -176.107235 -2.01277 1.751404 -88.872491 4.680974 2.356531 85.448424 -16.795388 30.274097 -98.728183 22.870526 21.509869 65.580088 -0.824922 -0.083414 11.547725 -7.281381 0.862088 -13.486584 -81.814421 64.463296 82.589886 55.552735 -3.384252 68.38549 140.350002 7.890439 124.944267 -175.303712 27.28344 143.052516 -175.384635 -8.067684 87.089491 -146.439985 0.782866 69.627531 -160.922019 -12.205778 114.721548 -28.7192 21.24273 -4.648399 40.634953 -71.760308 20.577268 -10.024556 57.596779 -1.875866 -76.391554 -70.450092 -90.357436 -135.441705 -45.333338 -166.430388 2.779416 -2.939423 -6.884907 -125.5821 43.686573 -175.352793 6.151445 36.079675 -5.128803 -159.40803 -53.844021 -76.935086 -7.361936 84.005451 -26.562446 11.451672 46.154934 -7.161475 175.150863 -14.643786 -89.322539 -131.132828 -52.770293 -95.776662 -7.786011 -8.388344 0.777444 -1.298059 29.576899 1.243324 176.002369 -32.296963 -144.773507 168.706172 27.178337 -133.253574 70.256836 74.792994 -88.587196 -2.550091 0.422862 1.912065 86.624698 -51.490223 86.574178 -0.242168 -34.907705 -1.838121 -0.909529 -4.152649 1.100641 -8.69955 -20.183984 -0.0 -7.944245 47.731518 -130.216199 83.133566 -36.378245 175.732522 -3.397277 0.806516 -0.0 12.182788 -18.520538 127.786671 36.649961 -28.599324 -11.31564 -28.919621 39.770577 -76.120195
11.4306 71.7261 10.7452 -176.445181 -31.307668 -176.19123 -2.140169 1.11636 -95.882005 3.80965 3.005076 92.115415 3.434382 22.520207 76.038592 -18.261853 -1.928496 -111.497701 -1.206477 -0.146598 13.855516 -7.12161 0.918057 -14.672738 -7.300743 17.060796 8.873033 -99.199589 -20.837315 171.554468 -80.293373 -39.258441 -117.778531 60.806194 -68.216884 45.812639 -1.470951 -3.027106 1.994272 -43.747354 32.130765 32.687039 -151.446097 2.052192 111.615396 86.377175 -64.700084 60.53894 7.195501 -33.545976 -0.284882 -85.548865 77.510212 84.914611 -82.131789 -71.180772 -95.870234 -137.759553 -43.415472 -166.582374 20.351121 43.210952 5.02925 -145.567673 28.519354 -170.024564 62.010342 72.828875 -64.740763 -6.362593 2.549203 -79.178539 21.95819 -81.253045 -4.097891 7.765678 38.059582 -5.514503 76.889925 39.129987 -43.212496 -150.615724 -55.040902 -60.7956 49.375734 40.278761 -41.212347 -6.394268 15.888873 -2.675665 -164.520717 -64.912167 -134.965811 -6.861459 -71.031567 1.881501 144.715134 -6.097139 176.003758 164.590864 54.183646 179.239117 -11.669871 42.858487 -13.382847 37.653977 -30.218266 27.901605 177.251107 79.079645 -0.0 169.601938 53.765674 41.742465 15.848201 40.003065 -105.455596 111.000873 43.512054 -17.919201 -10.770453 1.203703 -5.394592 22.649519 -15.620965 -58.821117 -45.865581 11.322553 -86.320286 -121.554314 13.674031 -175.882543
